<?xml version="1.0" encoding="UTF-8" standalone="no"?>
<!-- Created with Inkscape (http://www.inkscape.org/) -->

<svg
   width="324mm"
   height="324mm"
   viewBox="0 0 324 324"
   version="1.1"
   id="svg5"
   inkscape:version="1.1 (c68e22c387, 2021-05-23)"
   sodipodi:docname="ic_launcher_foreground.svg"
   inkscape:export-filename="C:\Konstantin\Android\FakeCall\ic_launcher_foreground.png"
   inkscape:export-xdpi="513.29163"
   inkscape:export-ydpi="513.29163"
   xmlns:inkscape="http://www.inkscape.org/namespaces/inkscape"
   xmlns:sodipodi="http://sodipodi.sourceforge.net/DTD/sodipodi-0.dtd"
   xmlns="http://www.w3.org/2000/svg"
   xmlns:svg="http://www.w3.org/2000/svg">
  <sodipodi:namedview
     id="namedview7"
     pagecolor="#505050"
     bordercolor="#eeeeee"
     borderopacity="1"
     inkscape:pageshadow="0"
     inkscape:pageopacity="0"
     inkscape:pagecheckerboard="false"
     inkscape:document-units="mm"
     showgrid="false"
     width="24mm"
     inkscape:zoom="0.44542649"
     inkscape:cx="529.82929"
     inkscape:cy="429.92504"
     inkscape:window-width="1920"
     inkscape:window-height="1001"
     inkscape:window-x="-9"
     inkscape:window-y="-9"
     inkscape:window-maximized="1"
     inkscape:current-layer="layer1"
     scale-x="1"
     viewbox-width="24" />
  <defs
     id="defs2" />
  <g
     inkscape:label="Layer 1"
     inkscape:groupmode="layer"
     id="layer1">
    <path
       id="path1085"
       style="fill:#ffffff;fill-opacity:1;stroke:none;stroke-width:4.97117;stroke-linejoin:round;stroke-opacity:1"
       d="m 191.19936,99.008385 c -18.63088,0 -33.79229,15.185745 -33.79229,33.846535 0,18.66078 15.16141,33.84654 33.79229,33.84654 18.63088,0 33.79228,-15.18576 33.79228,-33.84654 0,-18.66079 -15.1614,-33.846535 -33.79228,-33.846535 z m -71.16249,7.517135 c -2.48369,-0.006 -5.07824,0.88861 -8.24628,4.06174 l -0.031,0.031 c -10.76097,10.79332 -13.19267,21.06588 -12.689537,31.70878 0.3154,6.64146 2.078807,13.57068 7.020007,21.50585 -0.008,0.0148 0.80549,1.25617 1.21851,1.8579 0.26283,0.39109 0.5407,0.78678 0.81104,1.18543 22.58985,32.24909 49.66299,49.58345 51.87977,50.97192 l 0.14364,0.0931 c 7.88491,4.91903 14.78547,6.68013 21.39378,6.9885 10.63334,0.50396 20.89331,-1.92752 31.66183,-12.69827 v -0.007 c 3.4092,-3.42227 4.19445,-6.15171 4.0668,-8.78423 -0.12015,-2.64757 -1.17707,-5.47776 -4.91673,-9.22346 l -9.42598,-9.43722 c -3.7472,-3.7457 -6.56148,-4.80842 -9.20479,-4.93628 -2.62078,-0.1134 -5.35625,0.67298 -8.74299,4.05009 l -3.79911,3.8052 c -3.40929,3.41475 -6.14238,4.21655 -8.78569,4.08117 -2.16271,-0.1134 -4.32329,-1.19367 -4.56359,-1.32151 -3.79229,-1.96351 -21.49924,-11.98253 -33.67201,-33.28335 -0.42805,-0.64679 -1.95321,-3.51274 -1.99075,-5.68644 -0.0375,-2.64756 0.67674,-5.37726 4.07851,-8.79201 l 3.79913,-3.80521 c 3.37173,-3.3922 4.15986,-6.12477 4.03971,-8.76481 -0.12015,-2.64756 -1.18085,-5.47362 -4.9206,-9.21179 l -9.43763,-9.43344 c -3.72468,-3.76074 -6.54983,-4.8123 -9.19315,-4.94016 -0.16474,-0.008 -0.32725,-0.0151 -0.49284,-0.0156 z m 71.16249,1.88511 c 13.45688,0 24.40511,10.9658 24.40511,24.44429 0,5.04692 -1.53145,9.73111 -4.15225,13.62723 l -33.86213,-33.91261 c 3.88989,-2.62499 8.57795,-4.15891 13.60927,-4.15891 z m -20.2451,10.80928 33.85826,33.91261 c -3.88989,2.63252 -8.57434,4.16669 -13.61316,4.16669 -13.45688,0 -24.40899,-10.9658 -24.40899,-24.44429 0,-5.04691 1.54311,-9.73888 4.16389,-13.63501 z" />
  </g>
</svg>
